<?xml version="1.0" encoding="UTF-8" standalone="no"?>
<!DOCTYPE svg PUBLIC "-//W3C//DTD SVG 1.1//EN"
 "http://www.w3.org/Graphics/SVG/1.1/DTD/svg11.dtd">
<!-- Generated by graphviz version 13.1.2 (20250808.2320)
 -->
<!-- Title: graph_me Pages: 1 -->
<svg width="355pt" height="221pt"
 viewBox="0.00 0.00 355.00 221.00" xmlns="http://www.w3.org/2000/svg" xmlns:xlink="http://www.w3.org/1999/xlink">
<g id="graph0" class="graph" transform="scale(1 1) rotate(0) translate(4 217)">
<title>graph_me</title>
<polygon fill="white" stroke="none" points="-4,4 -4,-217 351.12,-217 351.12,4 -4,4"/>
<!-- 2251661448864 -->
<g id="node1" class="node">
<title>2251661448864</title>
<polygon fill="none" stroke="black" points="260.5,-213 179.25,-213 179.25,-177 260.5,-177 260.5,-213"/>
<text xml:space="preserve" text-anchor="middle" x="219.88" y="-196.75" font-family="Times New Roman,serif" font-size="10.00">Author#7b16a0</text>
<text xml:space="preserve" text-anchor="middle" x="219.88" y="-185.5" font-family="Times New Roman,serif" font-size="10.00">name=Ada</text>
</g>
<!-- 2251661449200 -->
<g id="node2" class="node">
<title>2251661449200</title>
<polygon fill="none" stroke="black" points="207,-124.5 98.75,-124.5 98.75,-88.5 207,-88.5 207,-124.5"/>
<text xml:space="preserve" text-anchor="middle" x="152.88" y="-108.25" font-family="Times New Roman,serif" font-size="10.00">Book#7b17f0</text>
<text xml:space="preserve" text-anchor="middle" x="152.88" y="-97" font-family="Times New Roman,serif" font-size="10.00">title=Apples: A Thesis</text>
</g>
<!-- 2251661448864&#45;&gt;2251661449200 -->
<g id="edge1" class="edge">
<title>2251661448864&#45;&gt;2251661449200</title>
<path fill="none" stroke="red" d="M203.24,-176.6C198.22,-171.11 192.8,-164.92 188.12,-159 181.92,-151.14 175.6,-142.24 170.06,-134.08"/>
<polygon fill="red" stroke="red" points="173.04,-132.25 164.58,-125.87 167.22,-136.13 173.04,-132.25"/>
<text xml:space="preserve" text-anchor="middle" x="215.5" y="-145.7" font-family="Times New Roman,serif" font-size="14.00" fill="red">_books[0]</text>
</g>
<!-- 2251662264272 -->
<g id="node3" class="node">
<title>2251662264272</title>
<polygon fill="none" stroke="black" points="347.12,-124.5 224.62,-124.5 224.62,-88.5 347.12,-88.5 347.12,-124.5"/>
<text xml:space="preserve" text-anchor="middle" x="285.88" y="-108.25" font-family="Times New Roman,serif" font-size="10.00">Book#8787d0</text>
<text xml:space="preserve" text-anchor="middle" x="285.88" y="-97" font-family="Times New Roman,serif" font-size="10.00">title=Bananas: A Rebuttal</text>
</g>
<!-- 2251661448864&#45;&gt;2251662264272 -->
<g id="edge2" class="edge">
<title>2251661448864&#45;&gt;2251662264272</title>
<path fill="none" stroke="red" d="M232.91,-176.91C242.25,-164.67 255.01,-147.95 265.67,-133.99"/>
<polygon fill="red" stroke="red" points="268.44,-136.13 271.72,-126.05 262.87,-131.88 268.44,-136.13"/>
<text xml:space="preserve" text-anchor="middle" x="286.16" y="-145.7" font-family="Times New Roman,serif" font-size="14.00" fill="red">_books[1]</text>
</g>
<!-- 2251661457936 -->
<g id="node4" class="node">
<title>2251661457936</title>
<polygon fill="none" stroke="black" points="145.75,-36 0,-36 0,0 145.75,0 145.75,-36"/>
<text xml:space="preserve" text-anchor="middle" x="72.88" y="-19.75" font-family="Times New Roman,serif" font-size="10.00">Chapter#7b3a10</text>
<text xml:space="preserve" text-anchor="middle" x="72.88" y="-8.5" font-family="Times New Roman,serif" font-size="10.00">title=Claim: Apples are popular</text>
</g>
<!-- 2251661449200&#45;&gt;2251661457936 -->
<g id="edge3" class="edge">
<title>2251661449200&#45;&gt;2251661457936</title>
<path fill="none" stroke="blue" d="M137.07,-88.41C125.53,-75.93 109.69,-58.8 96.63,-44.68"/>
<polygon fill="blue" stroke="blue" points="99.31,-42.43 89.95,-37.46 94.17,-47.18 99.31,-42.43"/>
<text xml:space="preserve" text-anchor="middle" x="150.42" y="-57.2" font-family="Times New Roman,serif" font-size="14.00" fill="blue">chapters[0]</text>
</g>
<!-- 2251662264912 -->
<g id="node5" class="node">
<title>2251662264912</title>
<polygon fill="none" stroke="black" points="301.62,-36 164.12,-36 164.12,0 301.62,0 301.62,-36"/>
<text xml:space="preserve" text-anchor="middle" x="232.88" y="-19.75" font-family="Times New Roman,serif" font-size="10.00">Chapter#878a50</text>
<text xml:space="preserve" text-anchor="middle" x="232.88" y="-8.5" font-family="Times New Roman,serif" font-size="10.00">title=Evidence: survey results</text>
</g>
<!-- 2251661449200&#45;&gt;2251662264912 -->
<g id="edge4" class="edge">
<title>2251661449200&#45;&gt;2251662264912</title>
<path fill="none" stroke="blue" d="M168.68,-88.41C180.22,-75.93 196.06,-58.8 209.12,-44.68"/>
<polygon fill="blue" stroke="blue" points="211.58,-47.18 215.8,-37.46 206.44,-42.43 211.58,-47.18"/>
<text xml:space="preserve" text-anchor="middle" x="230.42" y="-57.2" font-family="Times New Roman,serif" font-size="14.00" fill="blue">chapters[1]</text>
</g>
</g>
</svg>
